<?xml version="1.0" standalone="no"?>
<!DOCTYPE svg PUBLIC "-//W3C//DTD SVG 20010904//EN"
 "http://www.w3.org/TR/2001/REC-SVG-20010904/DTD/svg10.dtd">
<svg version="1.0" xmlns="http://www.w3.org/2000/svg"
 width="300.000000pt" height="157.000000pt" viewBox="0 0 300.000000 157.000000"
 preserveAspectRatio="xMidYMid meet">
<metadata>
Created by potrace 1.10, written by Peter Selinger 2001-2011
</metadata>
<g transform="translate(0.000000,157.000000) scale(0.100000,-0.100000)"
fill="#22222" stroke="none">
<path d="M228 1459 c-2 -61 0 -113 5 -116 4 -2 7 48 7 111 0 64 -2 116 -4 116
-3 0 -6 -50 -8 -111z"/>
<path d="M382 1550 c0 -14 2 -19 5 -12 2 6 2 18 0 25 -3 6 -5 1 -5 -13z"/>
<path d="M542 1550 c0 -14 2 -19 5 -12 2 6 2 18 0 25 -3 6 -5 1 -5 -13z"/>
<path d="M692 1545 c0 -16 2 -22 5 -12 2 9 2 23 0 30 -3 6 -5 -1 -5 -18z"/>
<path d="M1002 1550 c0 -14 2 -19 5 -12 2 6 2 18 0 25 -3 6 -5 1 -5 -13z"/>
<path d="M1152 1545 c0 -16 2 -22 5 -12 2 9 2 23 0 30 -3 6 -5 -1 -5 -18z"/>
<path d="M1462 1545 c0 -16 2 -22 5 -12 2 9 2 23 0 30 -3 6 -5 -1 -5 -18z"/>
<path d="M1612 1545 c0 -16 2 -22 5 -12 2 9 2 23 0 30 -3 6 -5 -1 -5 -18z"/>
<path d="M1925 870 c0 -388 1 -546 2 -353 2 194 2 512 0 705 -1 194 -2 36 -2
-352z"/>
<path d="M2072 1550 c0 -14 2 -19 5 -12 2 6 2 18 0 25 -3 6 -5 1 -5 -13z"/>
<path d="M2070 1510 c0 -5 5 -10 11 -10 5 0 7 5 4 10 -3 6 -8 10 -11 10 -2 0
-4 -4 -4 -10z"/>
<path d="M321 1464 l-31 -26 0 -529 0 -530 25 -24 24 -25 719 0 719 0 24 26
24 26 3 496 c2 273 0 512 -3 531 -4 18 -17 44 -30 57 l-24 24 -710 0 -709 0
-31 -26z m1466 -30 c6 -8 10 -30 8 -47 -2 -18 -4 -44 -4 -59 l-1 -28 -735 -2
-735 -3 0 63 c0 107 -72 97 745 95 633 -3 711 -5 722 -19z m-7 -602 c0 -327
-3 -441 -12 -450 -17 -17 -1409 -17 -1426 0 -9 9 -12 123 -12 450 l0 438 725
0 725 0 0 -438z"/>
<path d="M367 1412 c-10 -10 -17 -28 -17 -39 0 -27 40 -54 63 -42 11 6 24 6
36 -1 14 -7 22 -7 27 1 3 6 19 9 35 5 58 -11 92 26 63 69 -17 26 -49 34 -57
13 -3 -10 -9 -10 -29 1 -19 10 -31 10 -46 2 -14 -7 -23 -8 -27 -1 -10 15 -30
12 -48 -8z m51 -29 c5 -17 -26 -29 -40 -15 -6 6 -7 15 -3 22 9 14 37 9 43 -7z
m70 0 c5 -17 -26 -29 -40 -15 -6 6 -7 15 -3 22 9 14 37 9 43 -7z m72 -3 c0
-13 -7 -20 -20 -20 -13 0 -20 7 -20 20 0 13 7 20 20 20 13 0 20 -7 20 -20z"/>
<path d="M747 1412 c-23 -25 -21 -47 5 -71 20 -20 34 -20 302 -20 259 0 283 2
304 19 27 22 28 51 4 73 -16 15 -53 17 -309 17 -268 0 -291 -1 -306 -18z m608
-32 c0 -13 -41 -15 -297 -18 -294 -2 -298 -2 -298 18 0 20 4 20 298 18 256 -3
297 -5 297 -18z"/>
<path d="M694 1075 c0 -88 2 -123 3 -77 2 46 2 118 0 160 -1 42 -3 5 -3 -83z"/>
<path d="M1152 1210 c0 -14 2 -19 5 -12 2 6 2 18 0 25 -3 6 -5 1 -5 -13z"/>
<path d="M1462 1210 c0 -14 2 -19 5 -12 2 6 2 18 0 25 -3 6 -5 1 -5 -13z"/>
<path d="M1612 1210 c0 -14 2 -19 5 -12 2 6 2 18 0 25 -3 6 -5 1 -5 -13z"/>
<path d="M535 1200 c-3 -5 -1 -10 4 -10 6 0 11 5 11 10 0 6 -2 10 -4 10 -3 0
-8 -4 -11 -10z"/>
<path d="M1305 1200 c-3 -5 -1 -10 4 -10 6 0 11 5 11 10 0 6 -2 10 -4 10 -3 0
-8 -4 -11 -10z"/>
<path d="M1153 1140 c0 -25 2 -35 4 -22 2 12 2 32 0 45 -2 12 -4 2 -4 -23z"/>
<path d="M1613 1125 c0 -33 2 -45 4 -27 2 18 2 45 0 60 -2 15 -4 0 -4 -33z"/>
<path d="M383 1115 c0 -33 2 -45 4 -27 2 18 2 45 0 60 -2 15 -4 0 -4 -33z"/>
<path d="M1463 1120 c0 -30 2 -43 4 -27 2 15 2 39 0 55 -2 15 -4 2 -4 -28z"/>
<path d="M1002 1100 c0 -19 2 -27 5 -17 2 9 2 25 0 35 -3 9 -5 1 -5 -18z"/>
<path d="M1142 1061 c-34 -6 -34 -7 -118 -226 -108 -279 -103 -260 -60 -260
l35 0 93 239 c51 131 95 243 96 247 2 5 0 8 -5 8 -4 -1 -23 -4 -41 -8z m-16
-78 c-18 -33 -21 -17 -5 24 6 15 13 23 16 16 2 -6 -3 -24 -11 -40z m-34 -93
c-10 -30 -25 -56 -33 -58 -8 -2 -10 0 -4 5 6 4 11 16 13 25 4 26 33 91 38 86
2 -3 -4 -29 -14 -58z m-41 -97 c-8 -15 -10 -15 -11 -2 0 17 10 32 18 25 2 -3
-1 -13 -7 -23z m-29 -78 c-2 -14 -8 -25 -13 -25 -5 0 -9 -10 -9 -23 0 -13 -7
-32 -15 -43 -15 -19 -15 -19 22 99 8 26 21 20 15 -8z"/>
<path d="M1458 1053 c-2 -5 0 -46 3 -93 l5 -85 2 93 c2 83 -1 106 -10 85z"/>
<path d="M1610 970 c0 -51 2 -91 4 -89 7 7 9 169 2 176 -3 3 -6 -36 -6 -87z"/>
<path d="M543 1043 c9 -2 25 -2 35 0 9 3 1 5 -18 5 -19 0 -27 -2 -17 -5z"/>
<path d="M853 1043 c9 -2 23 -2 30 0 6 3 -1 5 -18 5 -16 0 -22 -2 -12 -5z"/>
<path d="M995 1040 c4 -6 11 -8 16 -5 14 9 11 15 -7 15 -8 0 -12 -5 -9 -10z"/>
<path d="M1728 1043 c7 -3 16 -2 19 1 4 3 -2 6 -13 5 -11 0 -14 -3 -6 -6z"/>
<path d="M1003 950 c0 -25 2 -35 4 -22 2 12 2 32 0 45 -2 12 -4 2 -4 -23z"/>
<path d="M1267 924 c-9 -13 -17 -27 -17 -32 0 -5 25 -26 55 -46 l56 -37 -60
-40 -61 -40 21 -29 21 -28 94 66 c51 37 93 69 93 72 0 3 -23 21 -51 40 -29 19
-71 49 -93 66 l-41 31 -17 -23z m58 -44 c3 -5 1 -10 -4 -10 -6 0 -11 5 -11 10
0 6 2 10 4 10 3 0 8 -4 11 -10z m71 -50 c31 0 16 -29 -35 -67 -31 -23 -60 -43
-65 -43 -6 0 4 10 20 23 40 29 64 53 64 65 0 5 -9 17 -20 27 -11 10 -20 22
-20 27 0 5 10 0 22 -12 12 -11 27 -20 34 -20z"/>
<path d="M733 877 c-51 -34 -92 -64 -93 -67 0 -3 12 -13 28 -22 15 -9 57 -39
94 -67 l67 -50 21 29 21 29 -56 37 c-30 20 -55 40 -55 43 0 5 57 45 108 77 5
3 -29 54 -37 54 -3 0 -47 -28 -98 -63z m67 9 c0 -2 -8 -10 -17 -17 -16 -13
-17 -12 -4 4 13 16 21 21 21 13z m-54 -52 c-17 -16 -14 -26 12 -56 23 -27 -1
-21 -34 7 l-29 26 25 19 c30 24 48 26 26 4z m70 -112 c-4 -3 -14 2 -24 12 -16
18 -16 18 6 6 13 -6 21 -14 18 -18z"/>
<path d="M691 894 c0 -11 3 -14 6 -6 3 7 2 16 -1 19 -3 4 -6 -2 -5 -13z"/>
<path d="M380 890 c0 -5 5 -10 11 -10 5 0 7 5 4 10 -3 6 -8 10 -11 10 -2 0 -4
-4 -4 -10z"/>
<path d="M535 890 c3 -5 8 -10 11 -10 2 0 4 5 4 10 0 6 -5 10 -11 10 -5 0 -7
-4 -4 -10z"/>
<path d="M1154 730 c0 -91 2 -128 3 -82 2 45 2 119 0 165 -1 45 -3 8 -3 -83z"/>
<path d="M381 803 c0 -40 2 -73 7 -73 4 0 6 24 4 52 -5 89 -9 97 -11 21z"/>
<path d="M1614 745 c0 -71 1 -99 3 -62 2 37 2 96 0 130 -2 34 -3 4 -3 -68z"/>
<path d="M1462 745 c0 -16 2 -22 5 -12 2 9 2 23 0 30 -3 6 -5 -1 -5 -18z"/>
<path d="M528 733 c7 -3 16 -2 19 1 4 3 -2 6 -13 5 -11 0 -14 -3 -6 -6z"/>
<path d="M1108 733 c7 -3 16 -2 19 1 4 3 -2 6 -13 5 -11 0 -14 -3 -6 -6z"/>
<path d="M694 570 c0 -91 2 -128 3 -82 2 45 2 119 0 165 -1 45 -3 8 -3 -83z"/>
<path d="M382 700 c0 -14 2 -19 5 -12 2 6 2 18 0 25 -3 6 -5 1 -5 -13z"/>
<path d="M1462 655 c0 -16 2 -22 5 -12 2 9 2 23 0 30 -3 6 -5 -1 -5 -18z"/>
<path d="M383 635 c0 -22 2 -30 4 -17 2 12 2 30 0 40 -3 9 -5 -1 -4 -23z"/>
<path d="M1610 589 c0 -11 4 -18 10 -14 5 3 7 12 3 20 -7 21 -13 19 -13 -6z"/>
<path d="M380 579 c0 -5 5 -7 10 -4 6 3 10 8 10 11 0 2 -4 4 -10 4 -5 0 -10
-5 -10 -11z"/>
<path d="M535 580 c3 -5 8 -10 11 -10 2 0 4 5 4 10 0 6 -5 10 -11 10 -5 0 -7
-4 -4 -10z"/>
<path d="M840 579 c0 -5 5 -7 10 -4 6 3 10 8 10 11 0 2 -4 4 -10 4 -5 0 -10
-5 -10 -11z"/>
<path d="M1300 579 c0 -5 5 -7 10 -4 6 3 10 8 10 11 0 2 -4 4 -10 4 -5 0 -10
-5 -10 -11z"/>
<path d="M383 500 c0 -36 2 -50 4 -32 2 17 2 47 0 65 -2 17 -4 3 -4 -33z"/>
<path d="M1153 520 c0 -25 2 -35 4 -22 2 12 2 32 0 45 -2 12 -4 2 -4 -23z"/>
<path d="M1458 489 c-2 -39 0 -73 5 -76 4 -2 7 30 7 71 0 42 -2 76 -4 76 -2 0
-6 -32 -8 -71z"/>
<path d="M1613 490 c0 -41 2 -58 4 -37 2 20 2 54 0 75 -2 20 -4 3 -4 -38z"/>
<path d="M1002 520 c0 -19 2 -27 5 -17 2 9 2 25 0 35 -3 9 -5 1 -5 -18z"/>
<path d="M1152 430 c0 -14 2 -19 5 -12 2 6 2 18 0 25 -3 6 -5 1 -5 -13z"/>
<path d="M535 430 c-3 -5 -1 -10 4 -10 6 0 11 5 11 10 0 6 -2 10 -4 10 -3 0
-8 -4 -11 -10z"/>
<path d="M840 430 c0 -5 5 -10 11 -10 5 0 7 5 4 10 -3 6 -8 10 -11 10 -2 0 -4
-4 -4 -10z"/>
<path d="M1298 423 c7 -3 16 -2 19 1 4 3 -2 6 -13 5 -11 0 -14 -3 -6 -6z"/>
<path d="M2073 1440 c0 -25 2 -35 4 -22 2 12 2 32 0 45 -2 12 -4 2 -4 -23z"/>
<path d="M28 1353 c7 -3 16 -2 19 1 4 3 -2 6 -13 5 -11 0 -14 -3 -6 -6z"/>
<path d="M70 1350 c0 -5 5 -10 10 -10 6 0 10 5 10 10 0 6 -4 10 -10 10 -5 0
-10 -4 -10 -10z"/>
<path d="M113 1353 c9 -2 25 -2 35 0 9 3 1 5 -18 5 -19 0 -27 -2 -17 -5z"/>
<path d="M1973 1353 c15 -2 39 -2 55 0 15 2 2 4 -28 4 -30 0 -43 -2 -27 -4z"/>
<path d="M2070 1350 c0 -5 5 -10 10 -10 6 0 10 5 10 10 0 6 -4 10 -10 10 -5 0
-10 -4 -10 -10z"/>
<path d="M234 1105 c0 -126 2 -177 3 -112 2 65 2 168 0 230 -1 62 -3 9 -3
-118z"/>
<path d="M2073 1275 c0 -33 2 -45 4 -27 2 18 2 45 0 60 -2 15 -4 0 -4 -33z"/>
<path d="M2070 1200 c0 -5 5 -10 11 -10 5 0 7 5 4 10 -3 6 -8 10 -11 10 -2 0
-4 -4 -4 -10z"/>
<path d="M2073 1115 c0 -33 2 -45 4 -27 2 18 2 45 0 60 -2 15 -4 0 -4 -33z"/>
<path d="M1948 1043 c7 -3 16 -2 19 1 4 3 -2 6 -13 5 -11 0 -14 -3 -6 -6z"/>
<path d="M2070 1039 c0 -5 5 -7 10 -4 6 3 10 8 10 11 0 2 -4 4 -10 4 -5 0 -10
-5 -10 -11z"/>
<path d="M70 890 c0 -5 5 -10 10 -10 6 0 10 5 10 10 0 6 -4 10 -10 10 -5 0
-10 -4 -10 -10z"/>
<path d="M2070 889 c0 -5 5 -7 10 -4 6 3 10 8 10 11 0 2 -4 4 -10 4 -5 0 -10
-5 -10 -11z"/>
<path d="M228 648 c-2 -123 0 -250 3 -283 3 -33 6 67 7 223 1 155 0 282 -3
282 -2 0 -6 -100 -7 -222z"/>
<path d="M2072 820 c0 -14 2 -19 5 -12 2 6 2 18 0 25 -3 6 -5 1 -5 -13z"/>
<path d="M2071 774 c0 -11 3 -14 6 -6 3 7 2 16 -1 19 -3 4 -6 -2 -5 -13z"/>
<path d="M2071 734 c0 -11 3 -14 6 -6 3 7 2 16 -1 19 -3 4 -6 -2 -5 -13z"/>
<path d="M8 733 c7 -3 16 -2 19 1 4 3 -2 6 -13 5 -11 0 -14 -3 -6 -6z"/>
<path d="M1953 733 c9 -2 25 -2 35 0 9 3 1 5 -18 5 -19 0 -27 -2 -17 -5z"/>
<path d="M2038 733 c7 -3 16 -2 19 1 4 3 -2 6 -13 5 -11 0 -14 -3 -6 -6z"/>
<path d="M2073 675 c0 -22 2 -30 4 -17 2 12 2 30 0 40 -3 9 -5 -1 -4 -23z"/>
<path d="M75 580 c3 -5 8 -10 11 -10 2 0 4 5 4 10 0 6 -5 10 -11 10 -5 0 -7
-4 -4 -10z"/>
<path d="M2070 579 c0 -5 5 -7 10 -4 6 3 10 8 10 11 0 2 -4 4 -10 4 -5 0 -10
-5 -10 -11z"/>
<path d="M2073 490 c0 -25 2 -35 4 -22 2 12 2 32 0 45 -2 12 -4 2 -4 -23z"/>
<path d="M2070 430 c0 -5 5 -10 11 -10 5 0 7 5 4 10 -3 6 -8 10 -11 10 -2 0
-4 -4 -4 -10z"/>
<path d="M118 423 c12 -2 32 -2 45 0 12 2 2 4 -23 4 -25 0 -35 -2 -22 -4z"/>
<path d="M2073 365 c0 -27 2 -38 4 -22 2 15 2 37 0 50 -2 12 -4 0 -4 -28z"/>
<path d="M1152 280 c0 -14 2 -19 5 -12 2 6 2 18 0 25 -3 6 -5 1 -5 -13z"/>
<path d="M235 273 c46 -109 49 -127 33 -192 -2 -10 5 -15 22 -15 20 0 26 6 32
38 8 38 57 114 97 150 28 26 26 36 -6 36 -21 -1 -36 -12 -62 -46 l-34 -45 -14
32 c-7 17 -13 38 -13 45 0 9 -11 14 -31 14 -26 0 -30 -3 -24 -17z"/>
<path d="M923 283 c-14 -3 -23 -12 -23 -23 0 -10 -4 -20 -9 -22 -12 -4 -24
-48 -13 -48 5 0 4 -22 -2 -50 -8 -43 -7 -53 7 -67 13 -14 21 -14 42 -5 31 14
36 57 6 47 -18 -5 -18 -3 -9 35 6 22 16 40 23 40 12 0 25 21 25 42 0 6 -7 8
-15 5 -11 -5 -13 0 -8 23 3 17 4 29 2 29 -2 -1 -14 -4 -26 -6z m7 -62 c0 -5
-7 -14 -15 -21 -12 -10 -15 -10 -15 2 0 8 3 18 7 21 9 10 23 9 23 -2z"/>
<path d="M1423 217 c-23 -39 -53 -90 -67 -113 l-25 -41 28 1 c22 1 33 9 47 34
15 28 23 33 48 30 25 -2 32 -8 34 -30 3 -25 7 -28 43 -28 21 0 42 -1 47 -1 4
-1 12 22 19 51 11 51 24 70 51 70 6 0 12 8 13 18 0 9 3 12 5 6 3 -6 -2 -37
-11 -69 -20 -78 -19 -83 9 -78 20 4 26 13 31 47 9 53 22 76 42 76 16 0 16 -11
-2 -96 -6 -28 -5 -31 17 -29 19 1 25 10 34 52 14 61 20 73 41 73 16 0 16 -11
-2 -95 -6 -27 -4 -30 18 -31 22 -2 25 4 36 61 7 35 10 73 6 84 -8 26 -46 37
-75 21 -13 -7 -26 -8 -33 -2 -7 5 -55 9 -109 9 l-96 0 -13 -78 c-13 -81 -28
-105 -30 -46 0 17 -6 64 -13 102 -10 57 -16 70 -32 72 -14 2 -29 -15 -61 -70z
m57 -33 c0 -8 -7 -14 -15 -14 -17 0 -18 2 -9 24 7 18 24 12 24 -10z"/>
<path d="M75 270 c3 -5 8 -10 11 -10 2 0 4 5 4 10 0 6 -5 10 -11 10 -5 0 -7
-4 -4 -10z"/>
<path d="M123 273 c15 -2 39 -2 55 0 15 2 2 4 -28 4 -30 0 -43 -2 -27 -4z"/>
<path d="M598 273 c7 -3 16 -2 19 1 4 3 -2 6 -13 5 -11 0 -14 -3 -6 -6z"/>
<path d="M691 264 c0 -11 3 -14 6 -6 3 7 2 16 -1 19 -3 4 -6 -2 -5 -13z"/>
<path d="M1300 269 c0 -5 5 -7 10 -4 6 3 10 8 10 11 0 2 -4 4 -10 4 -5 0 -10
-5 -10 -11z"/>
<path d="M1548 273 c6 -2 18 -2 25 0 6 3 1 5 -13 5 -14 0 -19 -2 -12 -5z"/>
<path d="M1648 273 c6 -2 18 -2 25 0 6 3 1 5 -13 5 -14 0 -19 -2 -12 -5z"/>
<path d="M1873 273 c9 -2 23 -2 30 0 6 3 -1 5 -18 5 -16 0 -22 -2 -12 -5z"/>
<path d="M1948 273 c7 -3 16 -2 19 1 4 3 -2 6 -13 5 -11 0 -14 -3 -6 -6z"/>
<path d="M2008 273 c12 -2 30 -2 40 0 9 3 -1 5 -23 4 -22 0 -30 -2 -17 -4z"/>
<path d="M2070 269 c0 -5 5 -7 10 -4 6 3 10 8 10 11 0 2 -4 4 -10 4 -5 0 -10
-5 -10 -11z"/>
<path d="M440 233 c-55 -20 -85 -94 -56 -137 45 -70 146 -19 146 74 0 50 -43
80 -90 63z m48 -66 c5 -23 -25 -57 -50 -57 -21 0 -24 30 -7 61 13 25 52 22 57
-4z"/>
<path d="M560 234 c0 -1 -7 -38 -15 -81 -19 -97 -19 -90 7 -88 19 1 25 10 33
51 12 58 21 74 42 74 13 0 14 -8 9 -42 -4 -24 -9 -53 -12 -64 -5 -18 -2 -21
20 -17 22 5 26 13 37 74 15 86 9 96 -66 96 -30 0 -55 -1 -55 -3z"/>
<path d="M735 218 c-35 -27 -51 -92 -31 -123 19 -29 49 -39 74 -26 13 7 23 7
31 -2 10 -9 16 -8 27 8 8 11 12 25 10 31 -3 7 -1 27 4 46 23 94 26 86 -35 86
-39 0 -63 -6 -80 -20z m67 -63 c-5 -43 -46 -63 -59 -29 -10 27 14 66 40 62 18
-2 21 -8 19 -33z"/>
<path d="M1002 224 c-33 -23 -54 -70 -47 -105 9 -39 48 -65 78 -52 15 7 27 7
39 -1 22 -14 26 -9 32 46 3 25 8 52 10 59 18 58 17 69 -9 69 -14 0 -25 -5 -25
-12 0 -9 -3 -9 -12 0 -16 16 -39 15 -66 -4z m60 -69 c-5 -43 -46 -63 -59 -29
-10 27 14 66 40 62 18 -2 21 -8 19 -33z"/>
<path d="M1146 221 c-11 -37 -29 -146 -25 -151 2 -2 12 -5 21 -5 13 -1 20 11
28 49 12 55 25 76 47 76 12 0 14 -7 9 -32 -20 -93 -20 -95 5 -93 21 1 26 10
38 68 13 61 13 69 -3 86 -23 25 -113 27 -120 2z"/>
<path d="M228 150 c-2 -22 0 -40 4 -40 5 0 8 18 8 40 0 22 -2 40 -4 40 -2 0
-6 -18 -8 -40z"/>
<path d="M1922 135 c0 -16 2 -22 5 -12 2 9 2 23 0 30 -3 6 -5 -1 -5 -18z"/>
<path d="M70 120 c0 -5 5 -10 10 -10 6 0 10 5 10 10 0 6 -4 10 -10 10 -5 0
-10 -4 -10 -10z"/>
<path d="M1300 120 c0 -5 5 -10 10 -10 6 0 10 5 10 10 0 6 -4 10 -10 10 -5 0
-10 -4 -10 -10z"/>
<path d="M2070 111 c0 -25 6 -27 13 -6 4 8 2 17 -3 20 -6 4 -10 -3 -10 -14z"/>
<path d="M1948 113 c7 -3 16 -2 19 1 4 3 -2 6 -13 5 -11 0 -14 -3 -6 -6z"/>
<path d="M1923 50 c0 -30 2 -43 4 -28 2 16 2 40 0 55 -2 16 -4 3 -4 -27z"/>
<path d="M1461 54 c0 -11 3 -14 6 -6 3 7 2 16 -1 19 -3 4 -6 -2 -5 -13z"/>
<path d="M232 30 c0 -19 2 -27 5 -17 2 9 2 25 0 35 -3 9 -5 1 -5 -18z"/>
<path d="M692 25 c0 -17 2 -22 5 -12 2 9 2 23 0 30 -3 6 -5 -1 -5 -18z"/>
<path d="M1612 25 c0 -17 2 -22 5 -12 2 9 2 23 0 30 -3 6 -5 -1 -5 -18z"/>
<path d="M1151 14 c0 -11 3 -14 6 -6 3 7 2 16 -1 19 -3 4 -6 -2 -5 -13z"/>
<path d="M1461 14 c0 -11 3 -14 6 -6 3 7 2 16 -1 19 -3 4 -6 -2 -5 -13z"/>
<path d="M2071 14 c0 -11 3 -14 6 -6 3 7 2 16 -1 19 -3 4 -6 -2 -5 -13z"/>
</g>
</svg>
